<?xml version="1.0" encoding="UTF-8" standalone="no"?>
<svg xmlns:dc="http://purl.org/dc/elements/1.1/" xmlns:cc="http://creativecommons.org/ns#"
  xmlns:rdf="http://www.w3.org/1999/02/22-rdf-syntax-ns#" xmlns:svg="http://www.w3.org/2000/svg"
  xmlns="http://www.w3.org/2000/svg" xmlns:sodipodi="http://sodipodi.sourceforge.net/DTD/sodipodi-0.dtd"
  xmlns:inkscape="http://www.inkscape.org/namespaces/inkscape" sodipodi:docname="text01.svg"
  inkscape:version="1.0 (4035a4fb49, 2020-05-01)" id="svg8" version="1.1" viewBox="0 0 400 240" height="240"
  width="400">
  <defs id="defs2" />
  <sodipodi:namedview inkscape:window-maximized="1" inkscape:window-y="-8" inkscape:window-x="-8"
    inkscape:window-height="1017" inkscape:window-width="1920" units="px" showgrid="false"
    inkscape:document-rotation="0" inkscape:current-layer="layer1" inkscape:document-units="px" inkscape:cy="102.24792"
    inkscape:cx="247.53711" inkscape:zoom="1.979899" inkscape:pageshadow="2" inkscape:pageopacity="0.0"
    borderopacity="1.0" bordercolor="#666666" pagecolor="#ffffff" id="base" />
  <metadata id="metadata5">
    <rdf:RDF>
      <cc:Work rdf:about="">
        <dc:format>image/svg+xml</dc:format>
        <dc:type rdf:resource="http://purl.org/dc/dcmitype/StillImage" />
        <dc:title></dc:title>
      </cc:Work>
    </rdf:RDF>
  </metadata>
  <g id="layer1" inkscape:groupmode="layer" inkscape:label="Layer 1">
    <g style="font-style:normal;font-weight:normal;font-size:80px;line-height:1.25;font-family:sans-serif;letter-spacing:4px;fill:#000000;fill-opacity:1;stroke:none"
      id="text835" aria-label="Brightness">
      <path id="path890" style="font-size:133.333px"
        d="m 66.000585,9.7071345 q 4.55728,0 12.890592,4.1015515 5.403632,5.143217 5.403632,12.499969 v 3.385408 q 0,8.072896 -5.924464,16.406208 -0.0651,-0.195312 5.273424,1.497392 12.304656,9.7656 12.304656,20.247344 v 2.018224 q 0,16.406208 -28.124928,22.851504 -3.450512,0.260416 -4.947904,0.260416 h -0.32552 q -13.606736,0 -20.247344,-12.109344 l -0.455728,-2.018224 q 0.455728,0 0.455728,-0.260416 3.971344,0 5.989568,4.23176 5.013008,3.710928 6.901024,3.710928 h 0.520832 q 9.570288,0 22.46088,-6.705712 8.528624,-5.598944 8.528624,-15.104128 v -1.692704 q 0,-7.031232 -6.5104,-11.3932 -3.2552,-1.041664 -5.664048,-1.041664 v 0 q -7.096336,7.747376 -13.34632,8.528624 h -1.171872 q -3.710928,0 -7.48696,-6.445296 v -1.041664 q 0,-4.492176 13.085904,-7.226544 4.361968,0 9.44008,-12.630176 1.106768,-3.450512 1.106768,-8.593728 0,-7.031232 -4.166656,-7.031232 h -3.059888 q -18.489536,3.58072 -18.489536,5.85936 0,1.822912 -1.497392,1.822912 h -0.32552 q -2.018224,0 -3.776032,-2.473952 v -3.059888 q 0,-4.752593 19.400992,-8.5937285 z M 38.787113,19.928463 q 4.361968,0 4.361968,7.48696 0.585936,4.8828 0.585936,10.546848 v 9.700496 q 0,2.213536 -0.260416,3.971344 0.260416,1.497392 0.260416,2.27864 -0.260416,19.20568 -0.260416,24.479104 0.260416,7.747376 0.260416,10.026016 -0.716144,0 -1.432288,1.171872 -2.92968,0 -6.705712,-4.752592 0.260416,-3.059888 0.260416,-4.492176 v -3.971344 q 0.846352,-56.445168 2.92968,-56.445168 z" />
      <path id="path892" style="font-size:66.6667px"
        d="m 106.39374,76.27593 q 4.16667,-11.197923 8.59376,-11.067715 4.45964,0.09766 5.5013,2.311199 l -1.95312,0.911459 h -0.71615 q 0,0.846355 -4.06901,2.539064 -2.63672,1.85547 -6.47787,10.774746 l 0.94401,9.667973 q -0.78125,0.976563 -0.78125,1.334637 -2.53906,0 -5.53386,-4.264326 0.19532,-8.170577 0.19532,-12.695319 v -0.911459 q 0,-0.716146 -0.58594,-5.826826 v -3.710939 q 0.16276,-1.399741 0.94401,-1.399741 4.00391,0.585938 4.00391,3.287763 0.29297,0 -0.0651,9.049484 z" />
      <path id="path894" style="font-size:66.6667px"
        d="m 130.21797,63.059777 q 4.00391,1.074219 4.00391,3.743491 0.16276,0 0.16276,0.976563 v 3.613283 q -0.65104,3.808596 -0.65104,4.32943 v 13.932299 q -0.65104,0.716146 -0.65104,1.009115 -2.05078,0 -4.36198,-3.320314 v -0.423177 q 0,-3.971357 -0.16276,-6.80339 0.32552,-7.324222 0.8138,-12.988288 v -1.953126 q 0,-2.115886 0.84635,-2.115886 z m 1.17188,-11.555996 h 0.45573 q 4.23177,1.367188 4.23177,2.115886 l 0.32552,1.139324 q 0,0.944011 -3.45052,2.408855 0,0.358074 -2.2461,1.432293 -2.34375,0 -3.15755,-2.506512 l -0.84635,-1.204428 v -0.748698 q 0,-0.61849 1.95312,-1.074219 0,-0.260417 2.73438,-1.562501 z" />
      <path id="path896" style="font-size:66.6667px"
        d="m 162.40809,60.911338 h 2.63672 q 4.23178,1.204428 4.23178,3.808596 0,2.01823 -2.3112,2.01823 -0.61849,-0.748698 -0.61849,-1.39974 v -0.878907 q -3.25521,0 -4.65495,1.595053 -5.69662,3.352866 -6.41277,5.208336 -3.90625,4.166669 -3.90625,8.789067 0,3.25521 3.19011,3.645836 1.39974,0.130208 2.70182,0.130208 7.32422,0 12.10938,-3.938804 v -7.259119 q 0,-2.766928 0.84636,-2.766928 2.70182,1.106771 2.70182,2.701824 1.4974,2.864585 1.4974,4.947919 -0.48828,4.687503 -1.36719,4.687503 0.16276,3.548179 0.16276,5.305992 v 10.481777 q 0,6.640629 -7.91016,11.197919 -2.34375,1.10677 -4.10157,1.10677 h -2.4414 q -5.3711,0 -8.91928,-8.26823 -0.19531,-0.68359 -0.19531,-1.17187 0,-6.022143 12.85808,-10.026051 h 0.22786 q 0.42318,0 0.97657,0.944011 -0.52084,0.618489 -3.58074,1.790365 -3.80859,1.85547 -5.33854,4.166669 -1.5625,2.343756 -1.75781,4.199216 0,2.21355 2.96224,4.36199 h 1.26953 q 6.70573,0 11.10027,-7.421883 1.00911,-2.148438 1.00911,-6.51042 v -7.421879 h 0.29297 q -4.52474,2.897137 -9.83073,2.897137 -9.14714,0 -11.23048,-6.119795 -1.23698,-1.920574 -1.23698,-4.069012 0,-6.315108 7.42188,-12.565111 6.21745,-4.166669 7.61719,-4.166669 z" />
      <path id="path898" style="font-size:66.6667px"
        d="m 185.54873,49.713415 q 2.37631,0 2.37631,2.734377 1.72526,2.408855 1.49739,5.598961 -0.19531,3.190106 -0.8138,7.552088 4.6875,-3.938805 10.09115,-2.897137 5.4362,1.009115 7.91016,5.403648 0.94401,1.334636 1.13933,11.881517 0.97656,-1.302084 3.74349,-5.598961 1.20442,0.260417 1.20442,0.813802 v 0.520834 q -2.18099,3.125002 -2.18099,4.329429 0,1.204428 -2.3763,5.826826 -0.78125,5.533857 -1.88802,5.533857 -1.33464,0 -3.09245,-2.604168 0.8138,-6.152347 0.8138,-10.38412 v -7.194014 q 0,-3.938804 -1.5625,-3.938804 -1.00911,-0.748699 -3.02734,-0.748699 -6.73829,0.292969 -9.53777,3.906253 -2.76693,3.580731 -2.27865,10.351568 -0.16276,10.156255 -0.8138,10.156255 l -0.39062,0.292969 q -1.17188,0 -4.13412,-3.09245 0,-0.748698 0.13021,-0.748698 0.0976,-10.38412 2.3763,-33.105486 0,-0.45573 -0.0325,-0.45573 l 0.0325,0.09766 q 0,-0.292968 0.13021,-0.585937 l -0.13021,-1.269532 q 0.0977,-2.376304 0.8138,-2.376304 z" />
      <path id="path900" style="font-size:66.6667px"
        d="m 222.75187,51.34102 q 0.55338,0 2.24609,1.627605 4.32943,2.3112 4.32943,5.696618 v 1.204428 q 0,0.846354 -0.26042,2.473959 h -0.26041 q 6.1849,-1.204427 8.07292,-1.822917 v 0.195312 q -0.84636,0 -1.4974,-1.692709 l 0.68359,-0.325521 h 0.26042 q 5.56641,1.464845 5.56641,4.589846 -1.00911,1.367189 -3.22266,1.822918 l -10.31901,2.213543 q -0.58594,8.951828 -0.7487,18.522145 l 6.86849,-4.785159 h 0.42318 q 0.45573,0 0.78125,0.781251 v 0.390625 q -1.43229,1.041667 -1.88802,3.808596 -4.85027,6.152347 -6.51042,6.152347 -2.3112,0 -3.51563,-3.385419 -0.52083,-0.195312 -0.52083,-1.302084 v -5.761721 q 0,-8.138026 0.58594,-13.671883 h 0.22786 q -3.35287,0.358073 -4.6875,0.358073 h -0.29297 q -5.17579,0.162761 -5.17579,-1.464844 l -0.94401,-1.595053 q 0,-0.651042 1.33464,-1.139324 0.52083,0.390626 0.84635,0.390626 h 3.0599 q 5.82683,-0.781251 5.82683,-1.106772 0.91146,-6.575524 0.91146,-7.356775 -2.08334,-2.083334 -2.47396,-4.166669 z" />
      <path id="path902" style="font-size:66.6667px"
        d="m 260.73627,64.459517 q 5.63151,0.846355 8.33334,3.027345 5.66406,4.231773 5.66406,10.351568 3.32032,-4.264325 3.32032,-2.506511 -1.72526,4.557294 -1.72526,4.752606 0,1.204428 -2.05079,6.477868 0,1.204428 -1.79036,4.427086 -1.79037,0 -3.77605,-2.441407 v -1.07422 q 1.4974,-3.287762 1.4974,-6.184899 v -2.962241 q 0,-8.007817 -4.78516,-9.76563 0,-0.61849 -3.125,-1.07422 h -0.39062 q -3.38542,0 -5.69662,2.571616 -2.76693,4.817711 -4.42709,11.881517 -1.10677,8.463546 -2.3763,8.463546 h -0.16276 q -1.36719,0 -2.99479,-2.083334 -0.7487,0 -0.7487,-1.23698 0.61849,0 0.58593,-20.247407 0.16277,-0.585937 0.16277,-0.944011 -0.29297,-0.488281 -0.29297,-1.269531 1.07422,0 3.9388,1.529948 0.7487,0.944011 1.17188,6.803389 v -0.16276 h -0.26042 q 2.70182,-6.998702 4.91537,-6.998702 2.86458,-1.334636 5.01302,-1.334636 z" />
      <path id="path904" style="font-size:66.6667px"
        d="m 295.92118,62.734256 h 0.16276 q 8.59375,0.878906 8.59375,5.664065 0,4.427086 -4.32943,7.161462 -2.79948,2.246095 -6.54297,3.548179 -5.66407,1.399741 -8.85417,1.399741 v 0.03255 q 0,5.078127 4.7526,6.152347 2.3112,0.520833 6.38022,0.683594 6.25,0 9.73307,-1.822918 2.50652,0.325521 2.50652,1.041668 v 0.618489 q -3.41797,2.539064 -4.6224,2.539064 -1.79037,0.716147 -4.98047,0.716147 h -1.23698 q -6.21745,0 -10.97006,-2.148439 -3.45052,-2.213543 -5.04558,-5.761722 -0.26041,-0.585938 -0.65104,-2.180991 -1.07422,0 -3.61328,-1.855469 0.0977,-0.813803 0.65104,-0.813803 h 3.15755 v 0.227865 q 0,-4.557294 5.72917,-10.22136 6.05469,-4.980471 9.1797,-4.980471 z m -10.31902,14.550789 h -0.32552 q 5.11068,-0.683594 8.78907,-2.604168 6.41276,-3.906252 6.41276,-6.445316 0.13021,-0.748699 0.13021,-1.367189 v -0.553385 q 0,-0.260417 -1.59505,-0.358073 h -0.55339 q -4.06901,0 -11.36068,8.105473 -1.23698,2.115886 -1.4974,3.222658 z" />
      <path id="path906" style="font-size:66.6667px"
        d="m 323.68421,61.367067 h 0.8138 q 5.92448,1.07422 5.92448,5.859379 -0.0976,0.520833 -1.20442,1.692709 -1.13933,0 -1.23698,-3.157554 -0.6836,-0.944011 -1.00912,-1.074219 h -1.46484 q -3.22266,0 -6.47787,5.143232 v 2.311199 q 0,0.78125 9.2448,2.897137 8.20312,2.79948 8.20312,4.817711 0.22787,0 0.22787,2.01823 v 0.423177 q 0,2.311199 -4.49219,5.338545 -2.21354,1.920574 -4.78516,2.994793 -1.5625,0.878907 -4.98047,1.302084 -7.29167,0 -11.00261,-9.440109 0,-0.423177 -0.13021,-0.683594 0.13021,-1.269532 0.84636,-4.069013 h 0.39062 q 0.91146,0 1.20443,0.813803 v 0.227864 q 0,0.61849 -0.52084,2.148439 0.22787,2.408855 3.51563,5.794274 1.07422,1.302084 2.70183,1.302084 5.85937,0 13.34636,-7.096358 0.45573,-0.61849 0.45573,-1.041667 v 0.03255 q -1.46485,-1.106772 -11.19793,-3.515627 -5.46875,-2.083334 -5.46875,-4.03646 -0.91146,-1.334637 -0.91146,-2.343752 v -1.269532 q 0,-3.580731 5.95704,-7.063806 1.30208,-0.325521 2.05078,-0.325521 z" />
      <path id="path908" style="font-size:66.6667px"
        d="m 351.38215,61.367067 h 0.8138 q 5.92448,1.07422 5.92448,5.859379 -0.0977,0.520833 -1.20443,1.692709 -1.13932,0 -1.23698,-3.157554 -0.68359,-0.944011 -1.00911,-1.074219 h -1.46485 q -3.22265,0 -6.47786,5.143232 v 2.311199 q 0,0.78125 9.24479,2.897137 8.20313,2.79948 8.20313,4.817711 0.22787,0 0.22787,2.01823 v 0.423177 q 0,2.311199 -4.49219,5.338545 -2.21355,1.920574 -4.78516,2.994793 -1.5625,0.878907 -4.98047,1.302084 -7.29167,0 -11.00261,-9.440109 0,-0.423177 -0.13021,-0.683594 0.13021,-1.269532 0.84635,-4.069013 h 0.39063 q 0.91146,0 1.20443,0.813803 v 0.227864 q 0,0.61849 -0.52084,2.148439 0.22787,2.408855 3.51563,5.794274 1.07422,1.302084 2.70182,1.302084 5.85938,0 13.34636,-7.096358 0.45573,-0.61849 0.45573,-1.041667 v 0.03255 q -1.46484,-1.106772 -11.19792,-3.515627 -5.46875,-2.083334 -5.46875,-4.03646 -0.91146,-1.334637 -0.91146,-2.343752 v -1.269532 q 0,-3.580731 5.95703,-7.063806 1.30209,-0.325521 2.05079,-0.325521 z" />
    </g>
    <g style="font-style:normal;font-weight:normal;font-size:80px;line-height:1.25;font-family:sans-serif;letter-spacing:4px;fill:#000000;fill-opacity:1;stroke:none"
      id="text835-1" aria-label="Contrast">
      <path id="path911" style="font-size:133.333px"
        d="m 100.24146,132.08346 q 12.04424,2.99478 12.04424,5.59894 2.92968,3.77603 3.05989,6.64061 -1.56249,3.71093 -1.56249,5.33853 h -1.5625 q -0.78125,0 -2.21354,-2.34375 v -4.23176 q 0,-3.05988 -4.36196,-3.77603 h -1.17188 q -9.17966,0 -21.940044,19.98693 -10.611952,17.8385 -14.387984,43.29416 -0.32552,4.29686 -0.32552,6.18488 0,9.17966 5.338528,10.48174 l 6.705712,0.71615 q 13.34632,0 44.661348,-15.16923 5.013,1.04166 5.013,2.86457 v 0.97656 q -3.3203,5.92447 -24.80462,15.49475 -11.262992,3.77604 -19.335888,3.77604 -16.210896,0 -20.898384,-8.39842 -5.403633,-6.4453 -5.403633,-14.06246 v -2.92968 q 1.562496,-21.22391 12.695281,-43.8801 14.908816,-26.56243 28.450444,-26.56243 z" />
      <path id="path913" style="font-size:66.6667px"
        d="m 136.46798,196.30847 q 4.10157,0 12.50001,3.9388 5.69662,4.75261 5.69662,9.01693 v 0.58594 q 0,8.23568 -12.56511,12.95574 -2.14844,0.45573 -6.51042,0.45573 -6.25001,0 -10.18881,-9.11459 -0.29297,-1.62761 -0.29297,-2.2461 0,-3.84115 2.44141,-10.28646 0.13021,0 -0.68359,-1.10677 v -0.35808 q 2.01823,-2.08333 4.85026,-3.71093 1.6276,0 4.7526,-0.13021 z m -7.35677,17.18751 q 0,3.25521 3.45052,6.21745 l 0.61849,0.13021 h 2.86459 q 6.90104,0 13.21615,-7.25912 1.26953,-3.19011 1.26953,-5.04558 0,-6.11979 -12.04427,-7.68229 h -1.4323 q -4.91536,0 -4.91536,1.49739 -3.02735,7.25912 -3.02735,12.14194 z" />
      <path id="path915" style="font-size:66.6667px"
        d="m 176.11254,198.42435 q 5.63151,0.84636 8.33333,3.02735 5.66407,4.23177 5.66407,10.35157 3.32031,-4.26433 3.32031,-2.50652 -1.72526,4.5573 -1.72526,4.75261 0,1.20443 -2.05078,6.47787 0,1.20443 -1.79037,4.42709 -1.79036,0 -3.77604,-2.44141 v -1.07422 q 1.4974,-3.28776 1.4974,-6.1849 v -2.96224 q 0,-8.00782 -4.78516,-9.76563 0,-0.61849 -3.125,-1.07422 h -0.39063 q -3.38542,0 -5.69662,2.57161 -2.76692,4.81772 -4.42708,11.88152 -1.10677,8.46355 -2.3763,8.46355 h -0.16277 q -1.36718,0 -2.99479,-2.08334 -0.7487,0 -0.7487,-1.23698 0.61849,0 0.58594,-20.2474 0.16276,-0.58594 0.16276,-0.94401 -0.29297,-0.48829 -0.29297,-1.26954 1.07422,0 3.93881,1.52995 0.7487,0.94401 1.17187,6.80339 v -0.16276 h -0.26041 q 2.70182,-6.9987 4.91536,-6.9987 2.86459,-1.33464 5.01303,-1.33464 z" />
      <path id="path917" style="font-size:66.6667px"
        d="m 204.98233,185.30586 q 0.55339,0 2.2461,1.6276 4.32943,2.3112 4.32943,5.69662 v 1.20443 q 0,0.84635 -0.26042,2.47396 h -0.26041 q 6.18489,-1.20443 8.07292,-1.82292 v 0.19531 q -0.84636,0 -1.4974,-1.69271 l 0.68359,-0.32552 h 0.26042 q 5.56641,1.46485 5.56641,4.58985 -1.00912,1.36719 -3.22266,1.82292 l -10.31901,2.21354 q -0.58594,8.95183 -0.7487,18.52214 l 6.86849,-4.78516 h 0.42318 q 0.45573,0 0.78125,0.78125 v 0.39063 q -1.43229,1.04167 -1.88802,3.8086 -4.85027,6.15234 -6.51042,6.15234 -2.3112,0 -3.51563,-3.38542 -0.52083,-0.19531 -0.52083,-1.30208 v -5.76172 q 0,-8.13803 0.58593,-13.67188 h 0.22787 q -3.35287,0.35807 -4.6875,0.35807 h -0.29297 q -5.17579,0.16276 -5.17579,-1.46485 l -0.94401,-1.59505 q 0,-0.65104 1.33464,-1.13932 0.52083,0.39062 0.84635,0.39062 h 3.0599 q 5.82683,-0.78125 5.82683,-1.10677 0.91146,-6.57552 0.91146,-7.35677 -2.08334,-2.08334 -2.47396,-4.16667 z" />
      <path id="path919" style="font-size:66.6667px"
        d="m 232.71283,210.24077 q 4.16667,-11.19793 8.59375,-11.06772 4.45964,0.0977 5.50131,2.3112 l -1.95313,0.91146 h -0.71615 q 0,0.84635 -4.06901,2.53906 -2.63672,1.85547 -6.47787,10.77475 l 0.94401,9.66797 q -0.78125,0.97657 -0.78125,1.33464 -2.53906,0 -5.53385,-4.26433 0.19531,-8.17057 0.19531,-12.69532 v -0.91145 q 0,-0.71615 -0.58594,-5.82683 v -3.71094 q 0.16276,-1.39974 0.94401,-1.39974 4.00391,0.58594 4.00391,3.28776 0.29297,0 -0.0651,9.04949 z" />
      <path id="path921" style="font-size:66.6667px"
        d="m 266.23758,197.578 h 1.10677 q 4.10157,0.78125 5.20834,2.3112 0.97656,1.88802 0.97656,2.83203 v 0.22787 q 0,1.82291 -1.46484,2.99479 -1.10677,-0.35807 -1.10677,-1.30209 v -2.05078 q 0,-1.72526 -1.30209,-2.21354 -0.16276,0 -1.00911,-0.22787 -6.21745,1.46485 -11.00261,5.69662 -4.13412,2.27865 -5.85938,7.25912 -0.13021,0.94401 -0.26042,1.20443 0,2.44141 5.33855,5.17578 0.7487,0.32552 1.20443,0.32552 h 2.99479 q 5.27344,0 12.59766,-9.86328 0.13021,0 0.65104,-6.51042 0,-1.33464 1.52995,-2.96224 2.05078,0 2.73438,1.20442 l -0.13021,0.94401 v 1.75782 q 0,0.78125 -0.71615,2.96224 0,0.0651 -0.22786,3.0599 v 1.43229 q 0,4.98047 2.08333,6.80339 0.39063,0.8138 0.84636,0.8138 0,0 1.10677,-0.71615 h 1.04167 q 1.52995,0 1.52995,1.46485 -0.61849,1.79036 -1.69271,2.3112 -3.90626,0 -7.22657,-4.98047 -1.33464,-2.76693 -1.33464,-3.90626 h 0.39063 q -3.84115,6.28256 -10.22136,8.39845 l -4.03646,0.26041 q -6.15235,0 -11.36068,-7.16146 -0.39063,-1.17187 -0.39063,-1.95313 v -0.35807 q 0,-4.06901 5.40365,-8.78907 6.60808,-4.94791 10.09115,-5.72917 1.92057,-0.71614 2.50651,-0.71614 z" />
      <path id="path923" style="font-size:66.6667px"
        d="m 296.01883,195.3319 h 0.81381 q 5.92448,1.07422 5.92448,5.85938 -0.0977,0.52084 -1.20443,1.69271 -1.13932,0 -1.23698,-3.15755 -0.68359,-0.94401 -1.00911,-1.07422 h -1.46485 q -3.22266,0 -6.47787,5.14323 v 2.3112 q 0,0.78125 9.2448,2.89714 8.20313,2.79948 8.20313,4.81771 0.22786,0 0.22786,2.01823 v 0.42317 q 0,2.3112 -4.49219,5.33855 -2.21354,1.92057 -4.78515,2.99479 -1.5625,0.87891 -4.98048,1.30209 -7.29167,0 -11.00261,-9.44011 0,-0.42318 -0.1302,-0.6836 0.1302,-1.26953 0.84635,-4.06901 h 0.39063 q 0.91145,0 1.20442,0.8138 v 0.22787 q 0,0.61849 -0.52083,2.14844 0.22786,2.40885 3.51563,5.79427 1.07422,1.30208 2.70182,1.30208 5.85938,0 13.34636,-7.09635 0.45573,-0.61849 0.45573,-1.04167 v 0.0325 q -1.46484,-1.10677 -11.19792,-3.51563 -5.46875,-2.08333 -5.46875,-4.03646 -0.91146,-1.33463 -0.91146,-2.34375 v -1.26953 q 0,-3.58073 5.95703,-7.06381 1.30209,-0.32552 2.05078,-0.32552 z" />
      <path id="path925" style="font-size:66.6667px"
        d="m 321.76363,185.30586 q 0.55339,0 2.2461,1.6276 4.32942,2.3112 4.32942,5.69662 v 1.20443 q 0,0.84635 -0.26041,2.47396 h -0.26042 q 6.1849,-1.20443 8.07292,-1.82292 v 0.19531 q -0.84635,0 -1.49739,-1.69271 l 0.68359,-0.32552 h 0.26042 q 5.56641,1.46485 5.56641,4.58985 -1.00912,1.36719 -3.22266,1.82292 l -10.31902,2.21354 q -0.58594,8.95183 -0.7487,18.52214 l 6.8685,-4.78516 h 0.42317 q 0.45573,0 0.78125,0.78125 v 0.39063 q -1.43229,1.04167 -1.88802,3.8086 -4.85026,6.15234 -6.51042,6.15234 -2.3112,0 -3.51562,-3.38542 -0.52084,-0.19531 -0.52084,-1.30208 v -5.76172 q 0,-8.13803 0.58594,-13.67188 h 0.22786 q -3.35286,0.35807 -4.6875,0.35807 h -0.29297 q -5.17578,0.16276 -5.17578,-1.46485 l -0.94401,-1.59505 q 0,-0.65104 1.33463,-1.13932 0.52084,0.39062 0.84636,0.39062 h 3.0599 q 5.82682,-0.78125 5.82682,-1.10677 0.91146,-6.57552 0.91146,-7.35677 -2.08333,-2.08334 -2.47396,-4.16667 z" />
    </g>
    <path sodipodi:nodetypes="ccaaaaaaaaaac" id="path886"
      d="m 39.901026,20.455589 v 65.407377 c 0,0 1.35548,-5.299005 3.535533,-5.555839 3.724713,-0.438812 4.459004,6.85627 8.081221,7.828683 11.732396,3.149654 27.175061,0.141839 35.355339,-8.838835 4.874334,-5.351261 6.388087,-14.927123 3.282996,-21.465742 -3.0594,-6.442405 -11.329168,-10.25282 -18.435284,-10.85914 -5.919552,-0.505078 -15.798474,0.436298 -16.667517,6.313454 -0.403914,2.731587 3.839574,5.488219 6.565991,5.050763 10.350898,-1.66081 15.352317,-15.78929 17.67767,-26.011429 1.378463,-6.059658 1.6714,-14.096717 -2.77792,-18.435283 -2.429529,-2.369052 -6.726638,-1.616467 -10.101525,-1.262691 -6.910378,0.724388 -19.697975,6.81853 -19.697975,6.81853"
      style="fill:none;stroke:#eb0000;stroke-width:1px;stroke-linecap:butt;stroke-linejoin:miter;stroke-opacity:1" />
    <path sodipodi:nodetypes="caaaaaac" id="path888"
      d="m 112.12693,147.22973 c 0,0 0.63459,-6.12323 -1.26269,-8.08122 -3.15948,-3.26057 -9.12061,-4.0851 -13.384519,-2.52537 -12.025904,4.39903 -18.79963,18.20913 -24.243661,29.79949 -6.639637,14.13581 -13.555789,30.99615 -9.091373,45.96194 1.65059,5.53317 6.61366,10.64218 12.12183,12.37437 9.969448,3.13516 21.056461,-2.05413 30.809653,-5.80838 6.62893,-2.55164 18.18275,-11.11167 18.18275,-11.11167"
      style="fill:none;stroke:#ff0000;stroke-width:1px;stroke-linecap:butt;stroke-linejoin:miter;stroke-opacity:1" />
  </g>
</svg>